Coordinates
version=1
nRows=17
nColumns=40
inDegrees=yes

Units are S.I. units (second, meters, Newtons, ...)
If the header above contains a line with 'inDegrees', this indicates whether rotational values are in degrees (yes) or radians (no).

endheader
time	pelvis_tilt	pelvis_list	pelvis_rotation	pelvis_tx	pelvis_ty	pelvis_tz	hip_flexion_r	hip_adduction_r	hip_rotation_r	knee_angle_r	knee_angle_r_beta	ankle_angle_r	subtalar_angle_r	mtp_angle_r	hip_flexion_l	hip_adduction_l	hip_rotation_l	knee_angle_l	knee_angle_l_beta	ankle_angle_l	subtalar_angle_l	mtp_angle_l	lumbar_extension	lumbar_bending	lumbar_rotation	arm_flex_r	arm_add_r	arm_rot_r	elbow_flex_r	pro_sup_r	wrist_flex_r	wrist_dev_r	arm_flex_l	arm_add_l	arm_rot_l	elbow_flex_l	pro_sup_l	wrist_flex_l	wrist_dev_l
      5.86500000	    -39.79588830	      7.20809274	      3.04234121	     -0.48143800	      0.71011785	     -0.92912353	    103.07510434	    -19.34283943	      8.11164909	     85.54344559	      1.49301478	     27.07784535	      0.00000000	      0.00000000	     98.40838644	     -8.22052635	     -6.69752468	     84.37407475	      1.47260541	     28.38931562	      0.00000000	      0.00000000	    -34.89023713	     -2.67929647	    -12.85920532	     -7.61576062	    -62.37001481	     59.67887875	    111.17493050	     87.92895500	      0.00000000	      0.00000000	     -5.79096643	    -66.49973414	     63.83615795	    105.22028934	     88.13750912	      0.00000000	      0.00000000
      5.87000000	    -39.36371492	      7.18584944	      3.11726513	     -0.48031612	      0.71119258	     -0.92922888	    102.53595032	    -19.57189305	      7.99067843	     85.58280653	      1.49370176	     27.23277113	      0.00000000	      0.00000000	     97.87285046	     -8.10752229	     -6.72831649	     84.36538765	      1.47245379	     28.45965252	      0.00000000	      0.00000000	    -35.55624093	     -2.52995837	    -12.96057242	     -7.96947551	    -62.28316846	     59.09399299	    111.14963060	     87.89451787	      0.00000000	      0.00000000	     -6.29433850	    -66.39977676	     63.06217988	    105.14544628	     88.18106652	      0.00000000	      0.00000000
      5.87500000	    -39.52681831	      7.23082862	      3.62513273	     -0.48065792	      0.71083207	     -0.93040387	    102.84607119	    -20.13679680	      8.14834207	     85.68026044	      1.49540265	     27.19653369	      0.00000000	      0.00000000	     98.03923412	     -7.52017093	     -6.80762934	     84.26694765	      1.47073569	     28.39510505	      0.00000000	      0.00000000	    -35.40777169	     -2.27168314	    -13.52648051	     -7.27620508	    -62.43936113	     59.90890285	    111.21362642	     87.91620278	      0.00000000	      0.00000000	     -6.61474293	    -66.40913284	     62.90256817	    105.30902252	     88.19053831	      0.00000000	      0.00000000
      5.88000000	    -39.60437303	      7.11408149	      3.68206271	     -0.48094325	      0.71073319	     -0.93046651	    102.88113407	    -20.15939938	      8.08978052	     85.64472920	      1.49478251	     27.26472087	      0.00000000	      0.00000000	     98.16796210	     -7.46529321	     -6.69276890	     84.25025180	      1.47044429	     28.36179411	      0.00000000	      0.00000000	    -35.38814859	     -2.12870923	    -13.52298473	     -7.30623254	    -62.53042136	     59.87677043	    111.30823308	     87.89511023	      0.00000000	      0.00000000	     -6.82302433	    -66.35305749	     62.66279691	    105.24792542	     88.19251949	      0.00000000	      0.00000000
      5.88500000	    -39.04954505	      7.26389562	      3.84429880	     -0.47948863	      0.71209070	     -0.93078759	    102.29113468	    -20.50819534	      8.14490577	     85.74085027	      1.49646014	     27.35921076	      0.00000000	      0.00000000	     97.40254790	     -7.22869286	     -6.90256337	     84.18731109	      1.46934577	     28.56780980	      0.00000000	      0.00000000	    -36.08277772	     -2.10329032	    -13.87124645	     -6.45809993	    -62.44846755	     60.66158907	    111.13174399	     87.98502671	      0.00000000	      0.00000000	     -6.74862105	    -66.33476256	     62.71200792	    105.16410865	     88.11013257	      0.00000000	      0.00000000
      5.89000000	    -39.38080596	      7.07440270	      3.74248361	     -0.48027982	      0.71135719	     -0.93031686	    102.56983797	    -20.28629426	      7.98086085	     85.67587761	      1.49532615	     27.43566336	      0.00000000	      0.00000000	     97.86625726	     -7.37697327	     -6.65111891	     84.21441554	      1.46981883	     28.57400067	      0.00000000	      0.00000000	    -35.76290337	     -2.05192173	    -13.65705366	     -6.67891472	    -62.51607133	     60.49069203	    111.20319208	     87.94380133	      0.00000000	      0.00000000	     -7.06398635	    -66.33732302	     62.41166348	    105.21497580	     88.13120029	      0.00000000	      0.00000000
      5.89500000	    -39.14688091	      7.12229599	      3.92575111	     -0.47961307	      0.71203183	     -0.93072790	    102.32723080	    -20.56593688	      8.02378743	     85.72778534	      1.49623211	     27.42384370	      0.00000000	      0.00000000	     97.55739715	     -7.13522908	     -6.71376677	     84.18420473	      1.46929155	     28.48588340	      0.00000000	      0.00000000	    -36.07107318	     -1.94748614	    -13.88704394	     -6.02003598	    -62.55772570	     61.18456930	    111.16453093	     87.93577261	      0.00000000	      0.00000000	     -6.72131696	    -66.34310527	     62.81095702	    105.19341731	     88.13293307	      0.00000000	      0.00000000
      5.90000000	    -39.13521058	      7.12324883	      3.90424735	     -0.47942840	      0.71209320	     -0.93054149	    102.29022334	    -20.54283288	      7.99638108	     85.73296053	      1.49632244	     27.52985868	      0.00000000	      0.00000000	     97.51971050	     -7.16762323	     -6.71932537	     84.18058595	      1.46922839	     28.57821833	      0.00000000	      0.00000000	    -36.21737964	     -1.95242182	    -13.87254939	     -6.50783314	    -62.51904650	     60.59641988	    111.17020948	     87.89026553	      0.00000000	      0.00000000	     -7.30730114	    -66.32180339	     62.07227832	    105.21951254	     88.18569738	      0.00000000	      0.00000000
      5.90500000	    -39.38708557	      7.17800940	      3.53342520	     -0.48015366	      0.71158209	     -0.92950139	    102.54888189	    -19.96666916	      8.08445467	     85.63023032	      1.49452946	     27.43041571	      0.00000000	      0.00000000	     97.81141959	     -7.62859542	     -6.70338297	     84.20272648	      1.46961482	     28.52142299	      0.00000000	      0.00000000	    -35.96083119	     -2.31531851	    -13.58752906	     -6.17207735	    -62.52991204	     61.06524885	    111.23537570	     87.85191795	      0.00000000	      0.00000000	     -7.15461813	    -66.50298159	     62.34611642	    105.34479161	     88.20923207	      0.00000000	      0.00000000
      5.91000000	    -39.79734384	      7.15351220	      3.11841571	     -0.48106666	      0.71086524	     -0.92823727	    102.92156887	    -19.34253282	      8.00545094	     85.48629359	      1.49201729	     27.51503833	      0.00000000	      0.00000000	     98.27460929	     -8.16651227	     -6.62548356	     84.19002963	      1.46939321	     28.64885749	      0.00000000	      0.00000000	    -35.54356308	     -2.64778244	    -13.21614792	     -6.15920362	    -62.48975055	     61.17301280	    111.21621997	     87.72943265	      0.00000000	      0.00000000	     -7.26642782	    -66.58313315	     62.34135695	    105.42562646	     88.18161023	      0.00000000	      0.00000000
      5.91500000	    -39.75716416	      7.18874521	      3.11523655	     -0.48093545	      0.71103577	     -0.92824607	    102.88675557	    -19.32446363	      8.09148787	     85.48486909	      1.49199243	     27.29342520	      0.00000000	      0.00000000	     98.22966538	     -8.18063267	     -6.66958467	     84.21519322	      1.46983240	     28.39297888	      0.00000000	      0.00000000	    -35.63233568	     -2.69070103	    -13.24617303	     -5.66035216	    -62.55991943	     61.72713986	    111.23052689	     87.92474891	      0.00000000	      0.00000000	     -7.08561666	    -66.67797498	     62.57983639	    105.54265549	     88.13868319	      0.00000000	      0.00000000
      5.92000000	    -39.95769659	      7.20690719	      2.90480809	     -0.48136188	      0.71073426	     -0.92760834	    103.07949555	    -19.01579684	      8.07103754	     85.41390862	      1.49075393	     27.23542387	      0.00000000	      0.00000000	     98.45159417	     -8.46382989	     -6.67671194	     84.21629714	      1.46985167	     28.35759728	      0.00000000	      0.00000000	    -35.46018893	     -2.88969271	    -13.07567827	     -5.56308764	    -62.58908822	     61.84210345	    111.25320752	     87.92453068	      0.00000000	      0.00000000	     -7.15185640	    -66.76659636	     62.56782477	    105.61513957	     88.13861249	      0.00000000	      0.00000000
      5.92500000	    -40.13604689	      7.17707147	      3.08508418	     -0.48142218	      0.71061284	     -0.92795179	    103.25341026	    -19.18464595	      8.08329115	     85.40686621	      1.49063102	     27.43878091	      0.00000000	      0.00000000	     98.60743868	     -8.25351937	     -6.63952222	     84.14019877	      1.46852350	     28.54496705	      0.00000000	      0.00000000	    -35.33792053	     -2.76382958	    -13.18442790	     -5.73351467	    -62.61077260	     61.66553526	    111.17326436	     87.84530653	      0.00000000	      0.00000000	     -7.35944025	    -66.66314120	     62.35368401	    105.49679983	     88.14803642	      0.00000000	      0.00000000
      5.93000000	    -40.08815792	      7.23226069	      3.17520644	     -0.48130842	      0.71081097	     -0.92808252	    103.24446157	    -19.29492669	      8.15369524	     85.43275371	      1.49108284	     27.21833015	      0.00000000	      0.00000000	     98.52380771	     -8.15830168	     -6.71745241	     84.11173415	      1.46802670	     28.38498499	      0.00000000	      0.00000000	    -35.45085630	     -2.76345445	    -13.29824017	     -5.39426479	    -62.68496445	     62.04410011	    111.27354221	     87.92058121	      0.00000000	      0.00000000	     -7.25502855	    -66.74346129	     62.49741998	    105.61426702	     88.13597426	      0.00000000	      0.00000000
      5.93500000	    -40.08596677	      7.27981203	      3.00520197	     -0.48113802	      0.71090932	     -0.92747603	    103.20598604	    -19.06478887	      8.17316475	     85.40503594	      1.49059907	     27.23439512	      0.00000000	      0.00000000	     98.49393414	     -8.37047941	     -6.72973472	     84.13138241	      1.46836963	     28.37466131	      0.00000000	      0.00000000	    -35.49296097	     -2.94254787	    -13.18469615	     -5.20690379	    -62.65855799	     62.25558190	    111.22184033	     87.92598310	      0.00000000	      0.00000000	     -7.24058236	    -66.81706275	     62.52613627	    105.65103826	     88.13350903	      0.00000000	      0.00000000
      5.94000000	    -40.15378287	      7.30749012	      2.92018393	     -0.48109719	      0.71097290	     -0.92718580	    103.24626548	    -18.93983424	      8.18527888	     85.34645172	      1.48957659	     27.09103022	      0.00000000	      0.00000000	     98.53193476	     -8.47855629	     -6.74754383	     84.10953950	      1.46798840	     28.36700739	      0.00000000	      0.00000000	    -35.47001515	     -3.04051738	    -13.13422408	     -5.07576626	    -62.67160495	     62.38705135	    111.22351095	     87.93468702	      0.00000000	      0.00000000	     -7.28726954	    -66.85013614	     62.50334461	    105.68114524	     88.13568222	      0.00000000	      0.00000000
      5.94500000	    -40.03844137	      7.28268786	      3.14593282	     -0.48053176	      0.71140793	     -0.92749383	    103.11397000	    -19.25534527	      8.13128946	     85.43895079	      1.49119100	     27.28860148	      0.00000000	      0.00000000	     98.35010643	     -8.24010935	     -6.78342863	     84.04384567	      1.46684182	     28.36978273	      0.00000000	      0.00000000	    -35.65648365	     -2.87233556	    -13.34178745	     -4.80917591	    -62.65853440	     62.62149546	    111.17404293	     87.93679589	      0.00000000	      0.00000000	     -7.32251055	    -66.82650885	     62.48364835	    105.60776792	     88.13073721	      0.00000000	      0.00000000
